<?xml version="1.0" encoding="utf-8"?>
<!-- Generator: Adobe Illustrator 27.0.1, SVG Export Plug-In . SVG Version: 6.00 Build 0)  -->
<svg version="1.1" id="圖層_1" xmlns="http://www.w3.org/2000/svg" xmlns:xlink="http://www.w3.org/1999/xlink" x="0px" y="0px"
	 viewBox="0 0 21.1 22.6" style="enable-background:new 0 0 21.1 22.6;" xml:space="preserve">
<style type="text/css">
	.st0{fill:#1F1411;}
</style>
<g>
	<path class="st0" d="M15.8,1.1V0H0v0.6c0.4,0.3,0.9,0.8,1.1,1.4c0.2,0.6,0.4,2.3,0.4,3.3v17.4h14.3v-1.1H6.1
		c-1.2,0-2.1-0.9-2.1-2.1V1.1H15.8z"/>
	<path class="st0" d="M5.3,21.5v1.1h15.8v-0.6c-0.4-0.3-0.9-0.8-1.1-1.4c-0.2-0.6-0.4-2.3-0.4-3.3V0H5.3v1.1H16
		c0.6,0,1.1,0.5,1.1,1.1v19.3H5.3z"/>
	<rect x="2.9" y="11" class="st0" width="7.8" height="1.2"/>
	<path class="st0" d="M7.6,6.1c0-1.9,0.5-3.4,1.7-4.6c1-1,2.4-1.6,4-1.6c1.6,0,2.9,0.5,4,1.6c1.1,1.2,1.7,2.7,1.7,4.6
		c0,1.8-0.6,3.4-1.7,4.5c-1,1-2.4,1.5-4,1.5c-1.6,0-3-0.5-4-1.5C8.2,9.5,7.6,8,7.6,6.1 M17,6C17,4.5,16.6,3.3,16,2.5
		c-0.7-0.9-1.7-1.3-2.9-1.3c-1.2,0-2.2,0.6-2.8,1.5c-0.6,0.8-0.8,2-0.7,3.5c0.1,1.5,0.5,2.7,1.1,3.5c0.7,0.9,1.7,1.3,2.9,1.3
		c1.2,0,2.2-0.5,2.8-1.5C16.8,8.7,17.1,7.5,17,6"/>
	<rect x="10" y="-0.9" transform="matrix(0.8156 -0.5787 0.5787 0.8156 -4.7474 8.2806)" class="st0" width="1.3" height="25"/>
</g>
</svg>
