<?xml version="1.0" encoding="utf-8"?>
<!-- Generator: Adobe Illustrator 27.0.1, SVG Export Plug-In . SVG Version: 6.00 Build 0)  -->
<svg version="1.1" id="圖層_1" xmlns="http://www.w3.org/2000/svg" xmlns:xlink="http://www.w3.org/1999/xlink" x="0px" y="0px"
	 viewBox="0 0 104.8 26.1" style="enable-background:new 0 0 104.8 26.1;" xml:space="preserve">
<style type="text/css">
	.st0{fill:#1F1411;}
</style>
<g>
	<path class="st0" d="M13.5,23.8c-0.6,0.5-1.4,0.8-2.1,0.8H5.6v-7.5c0.4-1.2,1.1-2.3,1.8-3.4c0.9-1.2,1.9-1.8,2.6-2.1
		c0.6-0.2,1.3-0.1,2,0.1c0.2-0.1,0.4-0.2,0.6-0.3c0.1-1.2,0.2-2.3,0.3-3.5c-1.2,0.4-2.5,1-3.8,1.9c-1.5,1-2.7,2.3-3.7,3.6V1.5h4.7
		c0.8,0,1.4,0.2,1.9,0.6l2.9,2.6H16V0H0v0.7c0.6,0.4,1.1,1,1.5,1.8c0.3,0.7,0.5,3,0.5,4.3v19.3h14.8l0.7-5h-0.8L13.5,23.8z"/>
	<path class="st0" d="M28,8c-2.5,0-4.5,0.8-6.1,2.3c-1.7,1.7-2.5,4-2.5,6.8c0,2.7,0.8,5,2.5,6.7c1.6,1.5,3.6,2.3,6.1,2.3
		c2.4,0,4.5-0.8,6-2.3c1.7-1.7,2.5-4,2.5-6.7c0-2.8-0.8-5-2.5-6.8C32.4,8.8,30.4,8,28,8 M31.7,22.1c-0.7,1.4-1.9,2.1-3.4,2.2
		c-1.5,0-2.7-0.6-3.6-2c-0.8-1.2-1.3-2.9-1.3-5.2c-0.1-2.2,0.2-4,0.9-5.2c0.7-1.4,1.9-2.2,3.4-2.2c1.5,0,2.7,0.6,3.6,2
		c0.8,1.2,1.2,2.9,1.3,5.2C32.6,19.1,32.3,20.9,31.7,22.1"/>
	<path class="st0" d="M38.6,10c0.6,0.5,1.1,1,1.3,1.5c0.3,0.7,0.4,1.8,0.4,3.1v11.4H44V7.9l-5.3,1.4V10z"/>
	<path class="st0" d="M58.4,10c0.6,0.5,1.1,1,1.3,1.5c0.3,0.7,0.4,1.7,0.4,3.1v11.4h3.6V8l-5.3,1.4V10z"/>
	<path class="st0" d="M61.9,0c-0.6,0-1.2,0.2-1.6,0.6s-0.7,1-0.7,1.6c0,0.6,0.2,1.2,0.7,1.6c0.5,0.5,1,0.7,1.6,0.7
		c0.6,0,1.2-0.2,1.6-0.7c0.4-0.5,0.6-1,0.6-1.6c0-0.6-0.2-1.2-0.6-1.6C63,0.2,62.5,0,61.9,0"/>
	<path class="st0" d="M76.9,9.8c0.9,0,1.8,0.3,2.6,0.8c-0.2-0.3-1.6-2.4-3.9-2.6c-1.3-0.1-2.4,0.3-3,0.6c-1.1,0.5-2.1,1.2-2.9,2.3
		c-1.4,1.8-2.2,4.2-2.2,6.9c0,2.2,0.5,4,1.4,5.4c1.3,1.9,3,2.9,5.2,2.9h0c1.3,0,2.5-0.5,3.6-1.2c0.6-0.4,1.2-0.9,1.8-1.3
		c-1.1,0.1-1.7,0.2-1.8,0.2c-2.2,0-3.9-0.6-5-2c-1-1.1-1.4-2.8-1.4-4.8c0-2.1,0.5-3.8,1.6-5.1C73.7,10.5,75.1,9.8,76.9,9.8"/>
	<path class="st0" d="M50.2,7.9L50.2,7.9c-1.5,0-2.9,0.7-4,1.7c-0.6,0.6-1.2,1.2-1.8,1.8c0.3-0.2,0.7-0.4,1.3-0.6
		c0.4-0.1,1.2-0.4,2.1-0.4c1.6,0,2.7,0.6,3.1,1.7c0.3,0.6,0.5,1.9,0.5,3.5v10.5h3.6V14.4C54.8,10.1,53.2,7.9,50.2,7.9"/>
	<path class="st0" d="M88.6,10c0.6,0.5,1.1,1,1.3,1.5c0.3,0.7,0.4,1.8,0.4,3.1v11.4H94V7.9l-5.3,1.4V10z"/>
	<path class="st0" d="M83.9,22.5c-0.3-0.7-0.4-1.7-0.4-3.1V7.9h-3.6v18.1l5.3-1.4V24C84.6,23.5,84.1,23,83.9,22.5"/>
	<path class="st0" d="M100.2,7.9L100.2,7.9c-1.5,0-2.9,0.7-4,1.7c-0.6,0.6-1.2,1.2-1.8,1.8c0.3-0.2,0.7-0.4,1.3-0.6
		c0.4-0.1,1.2-0.4,2.1-0.4c1.6,0,2.7,0.6,3.1,1.7c0.3,0.6,0.5,1.9,0.5,3.5v10.5h3.6V14.4C104.8,10.1,103.2,7.9,100.2,7.9"/>
</g>
</svg>
